# xmcd
#
# Track frame offsets: 
#        150
#        20441
#        38141
#        57317
#        78821
#        93087
#        111628
#        130939
#        145895
#        160590
#        179671
#        201766
#        236028
#
# Disc length: 3408 seconds
#
# Revision: 0
# Processed by: cddbd v1.5.2PL0 Copyright (c) Steve Scherf et al.
# Submitted via: ExactAudioCopy v0.95b4
#
DISCID=ad0d4e0d
DTITLE=Jimmy Voegeli - "F" is for Blues
DYEAR=2006
DGENRE=Blues
TTITLE0=Give up this fight
TTITLE1=Don't Know Why
TTITLE2=I Need You
TTITLE3=Fool
TTITLE4=So Go Love
TTITLE5=Marry Me
TTITLE6=Know what I like
TTITLE7=Ain't No Friend
TTITLE8=She gotta have it
TTITLE9=Please Come Home
TTITLE10=Waiting For You
TTITLE11=Booga Brain
TTITLE12=Papa's Waltz
EXTD=
EXTT0=
EXTT1=
EXTT2=
EXTT3=
EXTT4=
EXTT5=
EXTT6=
EXTT7=
EXTT8=
EXTT9=
EXTT10=
EXTT11=
EXTT12=
PLAYORDER=
